<svg xmlns="http://www.w3.org/2000/svg" xmlns:xlink="http://www.w3.org/1999/xlink" width="500" height="500" viewBox="0 0 500 500"><defs><linearGradient id="a" x1="0.359" y1="0.332" x2="0.797" y2="0.952" gradientUnits="objectBoundingBox"><stop offset="0" stop-color="#161616"/><stop offset="1" stop-color="#38006d"/></linearGradient><clipPath id="c"><rect width="500" height="500"/></clipPath></defs><g id="b" clip-path="url(#c)"><rect width="500" height="500" fill="url(#a)"/><rect width="243" height="40.5" transform="translate(46.7 412.6)" fill="#fff"/><path d="M155.4,68.6V19.1H20.4V68.6h39V238.1h-39v49.5h135V238.1H117.9V68.6Z" transform="translate(26 18)" fill="#fff"/><path d="M119.2,292.1c-21,0-39-4.5-52.5-12a129.773,129.773,0,0,1-34.5-28.5l37.5-42a87.063,87.063,0,0,0,22.5,19.5,50.568,50.568,0,0,0,25.5,7.5c10.5,0,19.5-3,27-10.5,6-7.5,9-18,9-34.5V19.1h60V194.6c0,16.5-1.5,30-6,42a79.926,79.926,0,0,1-19.5,30c-7.5,7.5-18,15-30,18-12,4.5-24,7.5-39,7.5" transform="translate(175 16)" fill="#fff"/></g></svg>